<svg data-v-423bf9ae="" xmlns="http://www.w3.org/2000/svg" viewBox="0 0 291 92" class="iconLeft"><!----><!----><!----><g data-v-423bf9ae="" id="ac307847-73e9-4bd1-b4d9-f217658021f5" fill="#000000" transform="matrix(5.763688845290021,0,0,5.763688845290021,120.25007736423889,0.4460769346601694)"><path d="M2.94 9.14L5.71 9.14L4.34 5.10L2.94 9.14ZM8.11 12.15L9.16 12.28L9.16 12.85L5.35 12.85L5.35 12.28L6.72 12.11L5.94 9.80L2.72 9.80L1.93 12.10L3.29 12.28L3.29 12.85L0.07 12.85L0.07 12.28L1.26 12.10L4.26 3.49L5.10 3.49L8.11 12.15ZM16.04 12.18L16.97 12.35L16.97 12.85L15.06 12.85L12.91 9.38L11.97 10.33L11.97 10.33Q11.97 10.78 11.98 11.24L11.98 11.24L11.98 11.24Q11.98 11.70 12.00 12.15L12.00 12.15L13.10 12.35L13.10 12.85L9.66 12.85L9.66 12.35L10.77 12.15L10.77 12.15Q10.78 11.59 10.79 11.03L10.79 11.03L10.79 11.03Q10.79 10.46 10.79 9.91L10.79 9.91L10.79 3.91L9.65 3.77L9.65 3.28L11.83 2.65L12.03 2.76L11.97 4.75L11.97 9.52L14.43 6.96L13.41 6.80L13.41 6.23L16.60 6.23L16.60 6.80L15.26 6.99L13.73 8.54L16.04 12.18ZM18.65 8.86L21.20 8.86L21.20 8.86Q21.70 8.86 21.87 8.65L21.87 8.65L21.87 8.65Q22.04 8.44 22.04 8.13L22.04 8.13L22.04 8.13Q22.04 7.84 21.92 7.57L21.92 7.57L21.92 7.57Q21.80 7.29 21.59 7.08L21.59 7.08L21.59 7.08Q21.39 6.87 21.12 6.75L21.12 6.75L21.12 6.75Q20.85 6.62 20.52 6.62L20.52 6.62L20.52 6.62Q20.23 6.62 19.91 6.74L19.91 6.74L19.91 6.74Q19.60 6.86 19.34 7.13L19.34 7.13L19.34 7.13Q19.08 7.41 18.89 7.83L18.89 7.83L18.89 7.83Q18.70 8.26 18.65 8.86L18.65 8.86ZM23.10 9.46L18.62 9.46L18.62 9.46Q18.65 10.77 19.26 11.47L19.26 11.47L19.26 11.47Q19.88 12.17 20.89 12.17L20.89 12.17L20.89 12.17Q21.56 12.17 22.01 11.89L22.01 11.89L22.01 11.89Q22.46 11.61 22.83 11.16L22.83 11.16L23.17 11.42L23.17 11.42Q22.81 12.18 22.13 12.62L22.13 12.62L22.13 12.62Q21.45 13.06 20.48 13.06L20.48 13.06L20.48 13.06Q19.77 13.06 19.19 12.82L19.19 12.82L19.19 12.82Q18.62 12.59 18.21 12.13L18.21 12.13L18.21 12.13Q17.81 11.68 17.58 11.03L17.58 11.03L17.58 11.03Q17.36 10.39 17.36 9.59L17.36 9.59L17.36 9.59Q17.36 8.79 17.61 8.13L17.61 8.13L17.61 8.13Q17.86 7.46 18.30 6.99L18.30 6.99L18.30 6.99Q18.75 6.51 19.33 6.24L19.33 6.24L19.33 6.24Q19.92 5.98 20.58 5.98L20.58 5.98L20.58 5.98Q21.13 5.98 21.61 6.16L21.61 6.16L21.61 6.16Q22.09 6.34 22.44 6.69L22.44 6.69L22.44 6.69Q22.79 7.04 22.99 7.55L22.99 7.55L22.99 7.55Q23.20 8.05 23.20 8.68L23.20 8.68L23.20 8.68Q23.20 8.92 23.17 9.11L23.17 9.11L23.17 9.11Q23.14 9.31 23.10 9.46L23.10 9.46ZM26.49 6.12L26.64 7.76L26.64 7.76Q27.01 6.92 27.54 6.45L27.54 6.45L27.54 6.45Q28.08 5.98 28.66 5.98L28.66 5.98L28.66 5.98Q28.97 5.98 29.25 6.14L29.25 6.14L29.25 6.14Q29.54 6.30 29.61 6.66L29.61 6.66L29.61 6.66Q29.61 7.01 29.37 7.22L29.37 7.22L29.37 7.22Q29.13 7.42 28.77 7.42L28.77 7.42L28.77 7.42Q28.34 7.42 27.97 7.07L27.97 7.07L27.87 6.97L27.87 6.97Q27.44 7.29 27.15 7.74L27.15 7.74L27.15 7.74Q26.85 8.18 26.66 8.81L26.66 8.81L26.66 9.91L26.66 9.91Q26.66 10.37 26.66 10.99L26.66 10.99L26.66 10.99Q26.67 11.61 26.68 12.14L26.68 12.14L27.83 12.35L27.83 12.85L24.44 12.85L24.44 12.35L25.45 12.17L25.45 12.17Q25.47 11.63 25.47 11.01L25.47 11.01L25.47 11.01Q25.48 10.39 25.48 9.91L25.48 9.91L25.48 9.20L25.48 9.20Q25.48 8.62 25.47 8.25L25.47 8.25L25.47 8.25Q25.45 7.87 25.44 7.45L25.44 7.45L24.33 7.32L24.33 6.83L26.28 5.98L26.49 6.12Z"></path></g><defs data-v-423bf9ae=""><linearGradient data-v-423bf9ae="" gradientTransform="rotate(25)" id="4e2858a4-82b0-4cab-b495-9ba50c33ff7c" x1="0%" y1="0%" x2="100%" y2="0%"><stop data-v-423bf9ae="" offset="0%" style="stop-color: rgb(0, 21, 214); stop-opacity: 1;"></stop><stop data-v-423bf9ae="" offset="100%" style="stop-color: rgb(9, 137, 251); stop-opacity: 1;"></stop></linearGradient></defs><g data-v-423bf9ae="" id="0894a730-510d-4878-b055-37c86aeef877" transform="matrix(1.0079666137695313,0,0,1.0079666137695313,0.6721028206091617,-0.7325739420906814)" stroke="none" fill="url(#4e2858a4-82b0-4cab-b495-9ba50c33ff7c)"><path d="M81.655 30.105l-4.908 8.306-3.101-1.835 13.636-23.071-6.213-11.908L61.75 16.658l-23.506.017-4.817 7.439L.142 16.609v17.294l7.18 2.186v7.277l6.438-5.317.009.001 3.342 9.885 5.295-7.256.1.03 3.092 5.92 5.04-2.882 7.61 11.42H24.289v5.481l-5.449 1.853-6.949-6.082v8.446l-5.874 1.996 5.22 7.831 25.944-3.426 24.604 21.048h38.131L100 42.715l-18.345-12.61zm-38.438.862a3.264 3.264 0 1 1-.002-6.528 3.264 3.264 0 0 1 .002 6.528zm28.259-.95l-1.69 1.9-6.933-6.161 8.226-7.48 1.713 1.886-6.131 5.572 4.815 4.283z"></path></g><!----></svg>